<svg width="24" height="24" viewBox="0 0 24 24" fill="none" xmlns="http://www.w3.org/2000/svg">
<path d="M10.8975 4.85249C11.0028 4.95796 11.062 5.10093 11.062 5.24999C11.062 5.39906 11.0028 5.54202 10.8975 5.64749L5.10843 11.4375L20.25 11.4375C20.3992 11.4375 20.5423 11.4968 20.6477 11.6022C20.7532 11.7077 20.8125 11.8508 20.8125 12C20.8125 12.1492 20.7532 12.2923 20.6477 12.3977C20.5423 12.5032 20.3992 12.5625 20.25 12.5625L5.10843 12.5625L10.8975 18.3525C10.9969 18.4591 11.0509 18.6002 11.0484 18.7459C11.0458 18.8916 10.9868 19.0306 10.8837 19.1337C10.7806 19.2368 10.6416 19.2958 10.4959 19.2984C10.3502 19.3009 10.2091 19.2469 10.1025 19.1475L3.35249 12.3975C3.24716 12.292 3.18799 12.1491 3.18799 12C3.18799 11.8509 3.24716 11.708 3.35249 11.6025L10.1025 4.85249C10.208 4.74715 10.3509 4.68799 10.5 4.68799C10.6491 4.68799 10.792 4.74715 10.8975 4.85249Z" fill="white"/>
</svg>
