<svg width="24" height="24" viewBox="0 0 24 24" fill="none" xmlns="http://www.w3.org/2000/svg">
<path d="M13.1025 19.1475C12.9972 19.042 12.938 18.8991 12.938 18.75C12.938 18.6009 12.9972 18.458 13.1025 18.3525L18.8916 12.5625L3.75001 12.5625C3.60082 12.5625 3.45775 12.5032 3.35226 12.3978C3.24677 12.2923 3.18751 12.1492 3.18751 12C3.18751 11.8508 3.24677 11.7077 3.35226 11.6023C3.45775 11.4968 3.60082 11.4375 3.75001 11.4375L18.8916 11.4375L13.1025 5.64751C13.0031 5.54088 12.9491 5.39984 12.9516 5.25411C12.9542 5.10839 13.0132 4.96935 13.1163 4.86629C13.2194 4.76323 13.3584 4.7042 13.5041 4.70163C13.6498 4.69905 13.7909 4.75315 13.8975 4.85251L20.6475 11.6025C20.7528 11.708 20.812 11.8509 20.812 12C20.812 12.1491 20.7528 12.292 20.6475 12.3975L13.8975 19.1475C13.792 19.2528 13.6491 19.312 13.5 19.312C13.3509 19.312 13.208 19.2528 13.1025 19.1475Z" fill="white"/>
</svg>
